<?xml version="1.0" encoding="UTF-8"?>
<svg width="26px" height="26px" viewBox="0 0 26 26" version="1.1" xmlns="http://www.w3.org/2000/svg" xmlns:xlink="http://www.w3.org/1999/xlink">
    <title>flip</title>
    <g id="Icons" stroke="none" stroke-width="1" fill="none" fill-rule="evenodd">
        <g id="Nailed-It" transform="translate(-39.000000, -26.000000)" fill="#000000">
            <g id="flip" transform="translate(39.000000, 26.000000)">
                <path d="M11.1506778,9.07158417 C10.7276,8.64852083 10.7276,7.96258306 11.1506778,7.53951972 C11.5737556,7.11645639 12.2595778,7.11645639 12.6826556,7.53951972 L18.4604333,11.8728964 C18.8835111,12.2959742 18.8835111,12.9817964 18.4604333,13.4048742 L12.6826556,17.7382075 C12.2595778,18.1612853 11.5737556,18.1612853 11.1506778,17.7382075 C10.7276,17.3151297 10.7276,16.6293075 11.1506778,16.2062297 L15.0789889,13.7222222 L7.86111111,13.7222222 C7.26280778,13.7222222 6.77777778,13.2371742 6.77777778,12.6388853 C6.77777778,12.0405964 7.26280778,11.5555519 7.86111111,11.5555519 L15.0789889,11.5555519 L11.1506778,9.07158417 Z" id="Path" fill-rule="nonzero"></path>
                <path d="M0,12.6388889 C0,5.65862556 5.65862556,0 12.6388889,0 C19.6191667,0 25.2777778,5.65862556 25.2777778,12.6388889 C25.2777778,19.6191667 19.6191667,25.2777778 12.6388889,25.2777778 C5.65862556,25.2777778 0,19.6191667 0,12.6388889 Z M12.6388889,2.16666667 C6.85524667,2.16666667 2.16666667,6.85524667 2.16666667,12.6388889 C2.16666667,18.4225889 6.85524667,23.1111111 12.6388889,23.1111111 C18.4225889,23.1111111 23.1111111,18.4225889 23.1111111,12.6388889 C23.1111111,6.85524667 18.4225889,2.16666667 12.6388889,2.16666667 Z" id="Shape"></path>
            </g>
        </g>
    </g>
</svg>