<?xml version="1.0" encoding="UTF-8"?>
<svg width="26px" height="26px" viewBox="0 0 26 26" version="1.1" xmlns="http://www.w3.org/2000/svg" xmlns:xlink="http://www.w3.org/1999/xlink">
    <title>no</title>
    <g fill="currentColor" >
        <path d="M8.43624914,8.43624827 C9.0178948,7.85458391 9.96099127,7.85458391 10.5426568,8.43624827 L13,10.8935767 L15.4573233,8.43624827 C16.0389889,7.85458391 16.9820853,7.85458391 17.5637509,8.43624827 C18.1454164,9.01791264 18.1454164,9.96100724 17.5637509,10.5426716 L15.1064176,13 L17.5637509,15.4573284 C18.1454164,16.0389928 18.1454164,16.9820874 17.5637509,17.5637517 C16.9820853,18.1454161 16.0389889,18.1454161 15.4573233,17.5637517 L13,15.1064233 L10.5426568,17.5637517 C9.96099127,18.1454161 9.0178948,18.1454161 8.43624914,17.5637517 C7.85458362,16.9820874 7.85458362,16.0389928 8.43624914,15.4573284 L10.8935626,13 L8.43624914,10.5426716 C7.85460348,9.96100724 7.85460348,9.01791264 8.43624914,8.43624827 Z" id="Path"></path>
    </g>
</svg>