<?xml version="1.0" encoding="UTF-8"?>
<svg width="18px" height="19px" viewBox="0 0 18 19" version="1" xmlns="http://www.w3.org/2000/svg" xmlns:xlink="http://www.w3.org/1999/xlink">
    <title>Refresh</title>
    <g fill="currentColor" >
        <path d="M3.54544,5.16277 C3.33022,5.10599 3.15134,4.95655 3.05718,4.75486 C2.96302,4.55318 2.96331,4.32009 3.05797,4.11863 L4.71872,0.58424 C4.84248,0.32086 5.10743,0.15284 5.39845,0.153199423 C5.68946,0.15356 5.95399,0.32223 6.0771,0.58592 L6.80973,2.15516 C6.83592,2.14486 6.86297,2.13594 6.8908,2.12848 C11.2381,0.96361 15.7067,3.54352 16.8715,7.8909 C18.0364,12.2382 15.4565,16.7068 11.1092,17.8716 C6.76181,19.0365 2.29328,16.4566 1.12841,12.1092 C0.75798,10.7268 0.76632,9.3299 1.09075,8.0312 C1.19114,7.6293 1.5983,7.3849 2.00016,7.4853 C2.40203,7.5857 2.64642,7.9929 2.54603,8.3947 C2.28174,9.4527 2.27445,10.5908 2.5773,11.721 C3.52775,15.2682 7.1738,17.3732 10.7209,16.4227 C14.2681,15.4723 16.3731,11.8262 15.4227,8.2791 C14.4877,4.78995 10.9447,2.69613 7.4531,3.53319 L8.1923,5.11649 C8.3154,5.38018 8.2748,5.69128 8.0883,5.91462 C7.9017,6.13795 7.6028,6.23319 7.3214,6.15895 L3.54544,5.16277 Z" id="Path"></path>
    </g>
</svg>