<?xml version="1.0" encoding="UTF-8"?>
<svg width="16px" height="14px" viewBox="0 0 16 14" version="1" xmlns="http://www.w3.org/2000/svg" xmlns:xlink="http://www.w3.org/1999/xlink">
    <title>Shuffle</title>
        <g fill="currentColor">
            <path d="M12.4697,0.46967 C12.1768,0.76256 12.1768,1.23744 12.4697,1.53033 L13.1893,2.2500025 L9.3768,2.2500025 C8.706,2.2500025 8.0942,2.63343 7.8018,3.23713 L7.5914,3.67144 C7.5381,3.78157 7.5381,3.91006 7.5914,4.02018 L8.1603,5.1947 C8.2332,5.3451 8.4474,5.3451 8.5203,5.1947 L9.1518,3.89102 C9.1935,3.80478 9.2809,3.7500025 9.3768,3.7500025 L13.1893,3.7500025 L12.4697,4.46967 C12.1768,4.76256 12.1768,5.2374 12.4697,5.5303 C12.7626,5.8232 13.2374,5.8232 13.5303,5.5303 L15.5303,3.53033 C15.8232,3.23744 15.8232,2.76256 15.5303,2.46967 L13.5303,0.46967 C13.2374,0.17678 12.7626,0.17678 12.4697,0.46967 Z" id="Path"></path>
            <path d="M6.0336,10.3286 C6.0869,10.2184 6.0869,10.0899 6.0336,9.9798 L5.46469,8.8053 C5.39183,8.6549 5.17755,8.6549 5.10469,8.8053 L4.47324,10.109 C4.43146,10.1952 4.34407,10.25 4.24824,10.25 L1,10.25 C0.58579,10.25 0.25,10.5858 0.25,11 C0.25,11.4142 0.58579,11.75 1,11.75 L4.24824,11.75 C4.91903,11.75 5.53079,11.3666 5.82321,10.7629 L6.0336,10.3286 Z" id="Path"></path>
            <path d="M12.4697,13.5303 C12.1768,13.2374 12.1768,12.7626 12.4697,12.4697 L13.1893,11.75 L9.3768,11.75 C8.706,11.75 8.0942,11.3666 7.8018,10.7629 L4.47324,3.89102 C4.43146,3.80478 4.34407,3.75 4.24824,3.75 L1,3.75 C0.58579,3.75 0.25,3.41421 0.25,3 C0.25,2.58579 0.58579,2.25 1,2.25 L4.24824,2.25 C4.91903,2.25 5.53079,2.63343 5.82321,3.23713 L9.1518,10.109 C9.1935,10.1952 9.2809,10.25 9.3768,10.25 L13.1893,10.25 L12.4697,9.5303 C12.1768,9.2374 12.1768,8.7626 12.4697,8.4697 C12.7626,8.1768 13.2374,8.1768 13.5303,8.4697 L15.5303,10.4697 C15.8232,10.7626 15.8232,11.2374 15.5303,11.5303 L13.5303,13.5303 C13.2374,13.8232 12.7626,13.8232 12.4697,13.5303 Z" id="Path"></path>
        </g>
</svg>