<?xml version="1.0" encoding="UTF-8"?>
<svg width="26px" height="26px" viewBox="0 0 26 26" version="1.1" xmlns="http://www.w3.org/2000/svg" xmlns:xlink="http://www.w3.org/1999/xlink">
    <title>yes</title>
    <g fill="currentColor">
        <path d="M0,12.6388889 C0,5.65862556 5.65862556,0 12.6388889,0 C19.6191667,0 25.2777778,5.65862556 25.2777778,12.6388889 C25.2777778,19.6191667 19.6191667,25.2777778 12.6388889,25.2777778 C5.65862556,25.2777778 0,19.6191667 0,12.6388889 Z M12.6388889,2.16666667 C6.85524667,2.16666667 2.16666667,6.85524667 2.16666667,12.6388889 C2.16666667,18.4225889 6.85524667,23.1111111 12.6388889,23.1111111 C18.4225889,23.1111111 23.1111111,18.4225889 23.1111111,12.6388889 C23.1111111,6.85524667 18.4225889,2.16666667 12.6388889,2.16666667 Z" id="Shape"></path>
        <path d="M18.1653397,8.48897674 C18.73914,9.08659297 18.7197399,10.036147 18.1221397,10.6098434 L12.8721375,16.6097256 C12.2917373,17.1671221 11.3749369,17.1671221 10.7945367,16.6097256 L7.04453536,13.0098282 C6.44691515,12.4361319 6.42753514,11.4865778 7.00125535,10.8889616 C7.57497556,10.2913454 8.5245359,10.2719655 9.12213611,10.8456819 L11.8333371,13.4484255 L16.044539,8.44569701 C16.6421392,7.87198062 17.5917395,7.8913605 18.1653397,8.48897674 Z" id="Path" fill-rule="nonzero"></path>
    </g>
</svg>