<?xml version="1.0" encoding="UTF-8"?>
<svg width="80px" height="76px" viewBox="0 0 80 76" version="1.1" xmlns="http://www.w3.org/2000/svg" xmlns:xlink="http://www.w3.org/1999/xlink">
    <!-- Generator: Sketch 62 (91390) - https://sketch.com -->
    <title>logo-2</title>
    <desc>Created with Sketch.</desc>
    <defs>
        <linearGradient x1="30.965801%" y1="91.1184362%" x2="68.3718531%" y2="2.66031663%" id="linearGradient-1">
            <stop stop-color="#FF1747" offset="0%"></stop>
            <stop stop-color="#FF1747" stop-opacity="0.627868226" offset="100%"></stop>
        </linearGradient>
    </defs>
    <g id="Page-1" stroke="none" stroke-width="1" fill="none" fill-rule="evenodd">
        <g id="mockup" transform="translate(-93.000000, -30.000000)">
            <g id="header" transform="translate(0.000000, 30.000000)">
                <g id="logo-2" transform="translate(94.000000, 0.000000)">
                    <path d="M35.8864,60.492105 C26.88055,59.107545 12.92965,53.89668 12.92965,37.850715 C12.92965,24.374205 23.8714,13.43286 37.3471,13.43286 C50.82415,13.43286 61.7659,24.374205 61.7659,37.850715 C61.7659,45.40572 58.32745,52.163955 52.93015,56.64528 C54.00745,57.181905 54.8053,58.48506 54.44485,60.41178 C56.8168,61.42698 58.29775,64.30221 56.79925,66.771765 C49.8022,78.297795 22.4404,76.627845 17.17,66.771765 C15.94825,64.48554 17.15245,61.42698 19.5244,60.41178 C19.114,59.77728 17.8909,57.47931 19.66345,55.481715 C23.70535,59.474745 31.3018,61.136595 35.8864,60.492105 Z" id="Fill-1" fill="url(#linearGradient-1)"></path>
                    <path d="M19.1437,54.53496 C14.91685,50.88699 11.84965,45.557865 11.84965,37.850715 C11.84965,23.778045 23.2747,12.35286 37.3471,12.35286 C51.4195,12.35286 62.8459,23.778045 62.8459,37.850715 C62.8459,45.267075 59.67205,51.94836 54.6109,56.609235 C55.26295,57.362805 55.6828,58.432545 55.6072,59.79726 C58.0912,61.29603 59.42095,64.534275 57.72265,67.33215 C54.05335,73.37691 45.0934,76.088655 36.3103,75.869685 C31.11415,75.74022 26.00035,74.60352 22.15015,72.623475 C19.45015,71.235405 17.3644,69.424785 16.21825,67.280985 C14.89255,64.80198 15.8578,61.58034 18.09745,59.983425 C17.5777,58.70484 17.1997,56.631915 18.8548,54.765135 C18.9385,54.671445 19.0357,54.59382 19.1437,54.53496 Z M19.9186,57.15234 C19.54735,58.331835 20.194,59.45814 20.4316,59.825475 C20.6044,60.09291 20.6503,60.422715 20.55715,60.72714 C20.464,61.031565 20.24125,61.279425 19.94965,61.404705 C18.1339,62.18163 17.18755,64.512945 18.1231,66.26241 C19.0843,68.06115 20.87305,69.537915 23.137,70.70256 C26.73205,72.55125 31.5124,73.5894 36.3643,73.71036 C44.3293,73.908945 52.5481,71.692785 55.87585,66.211245 C57.01525,64.335015 55.8232,62.17596 54.0196,61.404705 C53.5552,61.205715 53.2906,60.710535 53.38375,60.21333 C53.6281,58.901535 53.1826,57.97746 52.4482,57.61215 C52.1215,57.44934 51.89875,57.132495 51.8569,56.76975 C51.81505,56.407005 51.9595,56.047635 52.2403,55.814355 C57.39865,51.531075 60.6859,45.071865 60.6859,37.850715 C60.6859,33.6231154 59.5593914,29.65655 57.5903854,26.235092 C53.5603011,19.2321857 46.0008016,14.51286 37.3471,14.51286 C32.7420108,14.51286 28.446677,15.8495886 24.8282583,18.1558678 C18.3260264,22.300209 14.00965,29.5753675 14.00965,37.850715 C14.00965,53.19927 27.43675,58.10031 36.04975,59.42466 C36.57895,59.506065 36.9691,59.96331 36.9664,60.49899 C36.96235,61.03467 36.5668,61.48692 36.03625,61.561575 C31.55425,62.191755 24.352,60.71904 19.9186,57.15234 Z" id="Fill-2" fill="#000000"></path>
                    <path d="M26.2592785,0.000190634234 C27.6827185,-0.0231643658 27.1316485,2.10592063 27.8241985,2.81359063 C28.8415585,3.85309063 30.3729985,3.17350063 30.2833585,4.71385063 C30.2062735,6.03752563 28.6059835,5.15962063 28.0477585,6.26000563 C27.2632735,7.80616063 27.4657735,8.85011563 26.2592785,8.71916563 C25.0526485,8.58808063 25.4130985,6.88127563 24.6943585,6.03644563 C23.9753485,5.19134563 22.1186935,5.59175563 22.0116385,4.71385063 C21.8238535,3.17309563 23.9600935,3.47036563 24.6943585,2.81359063 C25.4284885,2.15668063 24.8114035,0.0242206342 26.2592785,0.000190634234 Z" id="Fill-3" fill="#000000"></path>
                    <path d="M15.699909,7 C17.1901162,7 18.4,8.20988378 18.4,9.70009096 C18.4,11.1901162 17.1901162,12.4 15.699909,12.4 C14.2097019,12.4 13,11.1901162 13,9.70009096 C13,8.20988378 14.2097019,7 15.699909,7 Z" id="Fill-4" fill="#000000"></path>
                    <path d="M69.535435,27 C70.93471,27 72.070735,28.136025 72.070735,29.5353 C72.070735,30.934575 70.93471,32.070735 69.535435,32.070735 C68.13616,32.070735 67,30.934575 67,29.5353 C67,28.136025 68.13616,27 69.535435,27 Z" id="Fill-5" fill="#000000"></path>
                    <path d="M73.1396983,38.0002439 C74.8572491,37.9705911 74.1923329,40.6534944 75.0280192,41.5449459 C76.2557732,42.8548748 78.1036721,41.9985524 77.9954537,43.9393362 C77.9024575,45.6072349 75.9714121,44.5010015 75.2977976,45.8874664 C74.3512067,47.8357302 74.5956574,49.1511355 73.1396983,48.986042 C71.6837392,48.8210821 72.1186593,46.6703249 71.2512495,45.6057656 C70.3837117,44.5410727 68.1433613,45.0455696 68.0140366,43.9393362 C67.7874943,41.9978845 70.3654195,42.3725506 71.2512495,41.5449459 C72.1372074,40.7173412 71.3927264,38.0302973 73.1396983,38.0002439 Z" id="Stroke-7" stroke="#000000" stroke-width="1.3495005" fill="#1BE4B7" stroke-linecap="round" stroke-linejoin="round"></path>
                    <path d="M6.16757966,13.0002855 C8.22871814,12.9654061 7.43074523,16.1358609 8.43363953,17.1895208 C9.90686755,18.7375343 12.1244679,17.7254825 11.9945392,20.0191462 C11.8829048,21.9903814 9.56568799,20.6829533 8.75736618,22.3215983 C7.62141853,24.6239131 7.91471277,26.1785181 6.16757966,25.983523 C4.42044656,25.7883906 4.94229771,23.2467263 3.90151979,21.9885962 C2.86043475,20.7303288 0.171913131,21.3265743 0.0168533654,20.0191462 C-0.255075421,17.7247959 2.83841498,18.1676544 3.90151979,17.1895208 C4.96462461,16.2115245 4.07114813,13.0359888 6.16757966,13.0002855 Z" id="Stroke-9" stroke="#000000" stroke-width="1.5" fill="#F7B500" stroke-linecap="round" stroke-linejoin="round"></path>
                    <path d="M23.31682,28.36575 C23.269435,28.008945 23.200315,27.73395 23.109595,27.5409 C23.02009,27.36108 22.85782,27.21393 22.633315,27.1116 L22.642765,27.110925 C22.53355,27.03951 22.405705,26.96958 22.268545,26.90046 C22.131385,26.83134 21.994225,26.76222 21.848695,26.70714 C21.712615,26.65125 21.577615,26.60859 21.44356,26.579295 C21.318955,26.54919 21.21406,26.53083 21.12064,26.53839 C20.84038,26.5608 20.66218,26.80218 20.575915,27.249705 C20.507065,27.68265 20.43538,28.195785 20.359645,28.77615 C20.293225,29.355705 20.220595,29.975895 20.14081,30.62322 C20.070475,31.270005 19.51414,31.955535 19.44475,32.615415 C19.37536,33.27543 19.322575,33.907365 19.256155,34.48692 C19.20958,35.07822 19.79386,35.56557 19.75633,36.036045 C19.7188,36.50652 19.701925,36.88182 19.684645,37.136835 L19.693015,37.12293 C19.688155,37.29681 19.682215,37.457595 19.693825,37.60353 C19.709755,37.802655 19.75066,37.95966 19.81627,38.074545 C19.87243,38.19024 19.975435,38.302155 20.096125,38.399355 L20.08573,38.3868 C20.21776,38.509785 20.35708,38.6055 20.502475,38.66058 C20.65732,38.714985 20.802715,38.770065 20.948245,38.82528 L21.05422,38.856735 C21.12064,38.864835 21.177745,38.87361 21.226615,38.896425 C21.274405,38.905875 21.3118,38.9028397 21.34906,38.899935 C21.47056,38.890215 21.551425,38.84364 21.600025,38.746305 C21.64876,38.64897 21.69412,38.511675 21.717745,38.33631 C21.749335,38.026485 21.777685,37.677105 21.821695,37.28628 C21.856255,36.89613 21.907285,36.478035 21.956425,36.03348 C22.00543,35.58879 21.418045,35.181765 21.473125,34.696575 C21.52942,34.22475 21.584635,33.73956 21.639715,33.25437 C21.7519,33.83298 22.498315,34.347465 22.60834,34.89948 C22.718365,35.45163 22.83352,35.949915 22.95367,36.394335 C23.08435,36.851175 23.218,37.227825 23.375275,37.549125 C23.52337,37.8711 23.709535,38.083185 23.90704,38.200905 C24.101305,38.278935 24.29665,38.37006 24.500365,38.44728 C24.703945,38.524365 24.90442,38.56176 25.100575,38.5461 C25.408915,38.521395 25.578745,38.294055 25.60075,37.865025 L25.592515,37.87893 C25.63936,37.40778 25.691335,36.882765 25.7506,36.33048 C25.80973,35.778195 25.867915,35.21268 25.933255,34.619895 C25.98928,34.027785 25.41931,33.48576 25.492885,32.878935 C25.557145,32.272785 25.623565,31.69323 25.699435,31.112865 C25.76572,30.53331 26.321245,29.9547 26.382535,29.428875 C26.45314,28.902375 26.509435,28.43055 26.569915,28.011645 C26.590435,27.91647 26.60272,27.83547 26.60569,27.75501 C26.60866,27.674685 26.602315,27.595035 26.59705,27.52875 C26.58112,27.329625 26.519425,27.147645 26.40508,27.009945 C26.299915,26.871435 26.167885,26.74845 26.01817,26.64018 C25.87885,26.5446 25.731295,26.462925 25.57645,26.40852 C25.431055,26.35344 25.305235,26.310105 25.20871,26.277705 C25.151605,26.26893 25.102735,26.246115 25.054945,26.236665 C25.01647,26.226405 24.97921,26.229375 24.941815,26.232345 C24.67087,26.25408 24.50104,26.481285 24.43327,26.92746 C24.330805,27.6435 24.22321,28.41327 24.12196,29.26269 C24.020845,30.112245 23.426575,31.027815 23.33896,31.929615 C23.28226,31.57362 23.235955,31.230045 23.17912,30.87405 C23.1235,30.531285 23.564005,30.162195 23.52094,29.858445 C23.477875,29.554695 23.44507,29.2635 23.40619,29.01294 C23.36731,28.762245 23.339905,28.53747 23.31682,28.36575 Z" id="Fill-10" fill="#FFFFFF"></path>
                    <path d="M31.471495,36.36963 C31.51888,36.726435 31.57531,36.96228 31.661845,37.102275 C31.73893,37.242945 31.88851,37.351215 32.08291,37.42911 L32.072515,37.416555 C32.248015,37.495935 32.40286,37.55034 32.553385,37.55169 C32.70391,37.552905 32.8732,37.55277 33.04141,37.53927 C33.27496,37.520505 33.420085,37.45557 33.48637,37.343385 C33.552655,37.2312 33.573985,37.02924 33.55171,36.750465 C33.502435,35.89983 33.458155,34.995195 33.40132,34.051545 C33.353935,33.10722 32.6734,32.24025 32.638435,31.334805 C32.594155,30.430305 33.05869,29.53836 33.031285,28.72593 C33.003745,27.9135 32.99524,27.219735 32.99524,26.63208 L32.99497,26.51193 L32.983225,26.365995 C32.96527,26.14041 32.91883,25.209315 32.841745,25.06851 C32.755345,24.928515 32.614945,24.81957 32.42068,24.741675 L32.247205,24.688755 C32.014465,24.6006 31.753645,24.514605 31.455565,24.431715 C31.158565,24.362055 30.799195,24.33735 30.36949,24.371775 C30.10786,24.3927 29.91805,24.48801 29.78035,24.64596 C29.65291,24.816465 29.540455,25.76025 29.44636,25.99488 C29.21605,26.64099 28.974535,27.381465 28.705075,28.244385 C28.43575,29.107305 27.68164,30.02247 27.425815,30.93777 C27.160675,31.853745 26.91214,32.74164 26.681155,33.61482 C26.441935,34.50204 26.885545,35.2278 26.724895,35.9217 C26.699245,36.07074 26.672515,36.206415 26.672785,36.326565 C26.663605,36.447525 26.662795,36.554445 26.67022,36.647325 C26.681965,36.79326 26.719495,36.91044 26.77471,37.012905 C26.84032,37.12779 26.90377,37.216215 26.9953,37.302345 C27.078595,37.402515 27.17836,37.474605 27.27826,37.54683 C27.38734,37.618245 27.496555,37.689525 27.59524,37.748385 L27.71377,37.819125 C27.840535,37.87569 27.955825,37.90647 28.049245,37.899045 C28.161295,37.89 28.257685,37.80225 28.338415,37.635525 C28.41901,37.4688 28.4965,37.26225 28.569805,37.002645 C28.644055,36.75627 28.71628,36.483435 28.786345,36.184005 C28.84804,35.898615 28.92958,35.62497 29.00275,35.365365 C29.31082,35.22051 29.657365,35.085915 30.061015,34.960095 C30.45535,34.835085 30.869395,34.72182 31.28236,34.59519 L31.32232,34.859115 C31.36795,35.429625 31.417765,35.933175 31.471495,36.36963 Z M30.83038,28.835415 C30.849955,29.314665 30.37543,29.8467 30.396085,30.33918 C30.41674,30.83166 30.438475,31.337505 30.46021,31.843215 C30.265,31.87224 30.08032,31.913685 29.89564,31.95513 C29.710825,31.99671 29.527225,32.05152 29.334175,32.107005 C29.50333,31.519215 29.68396,30.95721 29.856355,30.40911 C30.020515,29.875185 30.6808,29.3148 30.83038,28.835415 Z" id="Fill-11" fill="#FFFFFF"></path>
                    <path d="M37.197115,24.27444 C37.09627,24.188985 36.985975,24.10434 36.857185,24.02118 C36.737575,23.937345 36.600415,23.86809 36.47257,23.798295 C36.33541,23.72904 36.209725,23.685705 36.093355,23.641695 C35.96767,23.59836 35.87209,23.57919 35.787985,23.58594 C35.666485,23.59566 35.56807,23.65695 35.500705,23.755905 C35.433475,23.854725 35.380825,24.01929 35.33344,24.250005 C35.280115,24.64164 35.221255,26.48925 35.15281,27.042345 C35.093545,27.59463 35.027125,28.174185 34.963945,28.793565 C34.901845,29.426175 34.353745,30.0978 34.293805,30.757005 C34.224415,31.416885 34.172575,32.06205 34.117765,32.667525 C34.06282,33.272865 34.658575,33.786 34.625365,34.30953 C34.59202,34.83306 34.571095,35.275455 34.56124,35.62335 C34.558405,35.70381 34.554355,35.770905 34.549225,35.824635 C34.55449,35.891055 34.55044,35.95815 34.558,36.05103 C34.57393,36.25002 34.625095,36.41958 34.711495,36.559575 C34.78858,36.700245 34.9009,36.811485 35.02051,36.895455 C35.15038,36.991845 35.28862,37.074195 35.43415,37.12941 C35.58886,37.18368 35.73547,37.252125 35.89018,37.30653 C35.948365,37.328535 36.00547,37.33731 36.043945,37.34757 C36.091735,37.357155 36.12913,37.3541997 36.157075,37.35189 C36.28789,37.34136 36.36889,37.29492 36.41857,37.210815 C36.45772,37.114155 36.503215,36.976995 36.52468,36.7749 C36.573685,36.330345 36.62674,35.81856 36.68479,35.253045 C36.744055,34.70076 36.80008,34.10865 36.873655,33.50169 C36.937915,32.895675 36.376315,32.33961 36.44773,31.706325 C36.51928,31.072905 36.592855,30.465945 36.667645,29.87235 C36.74338,29.29212 37.29769,28.700145 37.368295,28.173645 C37.440115,27.660375 37.50775,27.214335 37.57039,26.822025 C37.59388,26.646525 37.6009,26.49897 37.590235,26.366265 C37.578625,26.22033 37.54933,26.08911 37.48372,25.974225 C37.419055,25.87257 37.328065,24.38406 37.18672,24.261885 L37.197115,24.27444 Z" id="Fill-12" fill="#FFFFFF"></path>
                    <path d="M42.37855,35.777115 C42.560125,35.69571 42.67528,35.606475 42.735355,35.53479 C42.804745,35.462565 42.82324,35.340795 42.810415,35.18163 C42.794485,34.982505 42.74737,34.745985 42.677305,34.45776 C42.59887,34.183575 42.502885,33.92424 42.38206,33.706755 L42.392455,33.71931 C42.300655,33.51303 42.20494,33.373845 42.104095,33.28839 C41.9938,33.203745 41.869195,33.17364 41.710435,33.18633 C41.43949,33.208065 41.189335,33.254775 40.969285,33.325785 C40.740055,33.397605 40.520005,33.468615 40.28146,33.541245 C40.36219,32.907015 39.815035,32.296545 39.901975,31.621815 C39.99013,30.960315 40.087465,30.29814 40.176565,29.650005 C40.265665,29.00187 40.852105,28.340505 40.945525,27.745425 C41.04934,27.1629 41.13763,26.621685 41.22079,26.1342 L41.212555,26.14824 C41.24239,26.05239 41.25373,25.95789 41.257645,25.890795 C41.27101,25.823025 41.27263,25.02153 41.267365,24.955245 C41.254675,24.795945 41.17543,24.62868 41.04016,24.466005 C40.90489,24.303195 40.74262,24.15591 40.5628,24.023475 C40.37353,23.891715 40.17616,23.773995 39.972445,23.696775 C39.768865,23.619555 39.59647,23.58 39.44689,23.59188 C39.222655,23.60997 39.061195,23.823135 38.971555,24.23097 C38.892445,24.65136 38.81995,25.85907 38.739895,26.386245 C38.66092,26.926785 38.583025,27.480555 38.50621,28.04769 C38.431555,28.641285 37.869955,29.26053 37.79638,29.867355 C37.72375,30.48741 37.66678,31.06629 37.608595,31.631805 C37.541095,32.19813 38.134825,32.684805 38.09014,33.18255 C38.054635,33.679485 38.024395,34.122555 37.99915,34.511895 L38.006305,34.484625 C37.9951,34.57899 37.99105,34.646085 37.987,34.71318 C37.9924,34.7796 37.98835,34.846695 37.993615,34.91298 C38.009545,35.112105 38.052475,35.29557 38.11093,35.43786 C38.178565,35.57934 38.255785,35.72001 38.34934,35.832735 L38.55751,36.08316 L38.548195,36.083835 C38.632435,36.19737 38.71465,36.284175 38.77702,36.35937 C38.84992,36.446985 38.921605,36.52137 38.994505,36.608985 L38.993425,36.595755 C39.07564,36.682695 39.155695,36.74304 39.23575,36.803385 C39.32512,36.863055 39.43933,36.880605 39.57946,36.8694 C39.65425,36.863325 39.71959,36.85806 39.802615,36.83808 C39.875245,36.805545 39.95719,36.772335 40.047505,36.72495 L40.03819,36.72576 C40.401205,36.563085 40.784065,36.41229 41.19487,36.2592 C41.59636,36.106785 41.988535,35.95518 42.370315,35.791155 L42.37855,35.777115 Z" id="Fill-13" fill="#FFFFFF"></path>
                    <path d="M44.09845,25.22808 L43.323145,34.91892 C43.315045,35.05311 43.316395,35.186625 43.32706,35.31933 C43.345015,35.544915 43.389025,35.74161 43.44856,35.89713 C43.517275,36.05184 43.59436,36.192645 43.68913,36.3186 L43.68805,36.30537 C43.814005,36.468855 43.920115,36.620595 44.0242,36.74574 C44.119915,36.88506 44.22292,36.996975 44.31445,37.083105 C44.416375,37.18179 44.516275,37.25388 44.623195,37.298835 C44.73025,37.343655 44.85391,37.360395 44.98459,37.35 C45.10609,37.34028 45.25351,37.30167 45.41632,37.221885 L45.408085,37.235925 C45.79081,37.08513 46.191355,36.919485 46.60108,36.75303 C47.011885,36.59994 47.41243,36.43443 47.795155,36.2835 C47.97781,36.21546 48.09391,36.139455 48.152905,36.05454 C48.22135,35.96895 48.237685,35.82072 48.221755,35.62173 C48.203665,35.396145 48.15547,35.14626 48.079195,34.898535 C47.993605,34.651755 47.909095,34.41807 47.817295,34.21179 L47.818375,34.22502 C47.74534,34.017255 47.65786,33.863895 47.547565,33.77925 C47.437405,33.694605 47.294035,33.66612 47.12596,33.679485 C46.8457,33.70203 46.58623,33.749415 46.338235,33.82272 C46.09024,33.896025 45.85156,33.96852 45.61396,34.05438 C45.6199,33.893595 45.632995,33.705675 45.662695,33.48954 C45.70279,33.28596 45.09826,33.134085 45.1312,32.95791 C45.34072,32.874345 45.55969,32.78997 45.778525,32.70573 C45.998575,32.63472 46.22686,32.54967 46.45501,32.464485 L46.445695,32.465295 C46.60135,32.41278 46.758085,32.373495 46.91374,32.32098 C47.061025,32.282505 47.1886,32.23215 47.305915,32.169375 C47.413645,32.107275 47.50072,32.0202 47.568085,31.92138 C47.626,31.823235 47.65381,31.70079 47.6422,31.554855 C47.63572,31.475205 47.6179,31.36977 47.57929,31.23936 L47.589685,31.251915 C47.546755,31.068315 47.49451,30.885525 47.45158,30.70206 C47.40973,30.531825 47.337775,30.337155 47.247055,30.144105 L47.248135,30.15747 C47.164705,29.937015 47.05954,29.79864 46.95046,29.727225 C46.841245,29.65581 46.68856,29.628 46.511035,29.642175 L46.445695,29.64744 C46.17583,29.682405 45.907045,29.7306 45.639205,29.79216 C45.696715,29.453715 46.248325,29.062215 46.29544,28.711215 C46.35295,28.37277 46.402225,28.048365 46.453525,27.75042 C46.839625,27.63945 47.19859,27.54387 47.52961,27.450585 C47.87116,27.369855 48.203125,27.2898 48.517675,27.224595 C48.72004,27.1683 48.85477,27.090675 48.922135,26.991855 C48.989365,26.8929 49.01299,26.7174 48.99382,26.478585 C48.984235,26.35911 48.965335,26.240445 48.927805,26.123265 L48.9382,26.13582 C48.907825,25.99137 48.87745,25.84692 48.838705,25.716375 C48.80941,25.58529 48.74893,25.416405 48.667525,25.22268 L48.668605,25.23591 C48.59449,25.01478 48.50593,24.848325 48.384295,24.737895 C48.26266,24.627465 48.106465,23.852025 47.91031,23.867685 L47.8636,23.871465 C47.52826,23.911695 47.20453,23.97771 46.87351,24.070995 C46.54249,24.16428 46.220785,24.256755 45.90016,24.362595 C45.58885,24.467625 45.28699,24.57198 44.99539,24.688755 C44.71324,24.804855 44.440405,24.920145 44.204965,25.0326 L44.09845,25.22808 Z" id="Fill-14" fill="#FFFFFF"></path>
                    <path d="M49.51762,27.027225 L49.0246,35.54694 L49.03297,35.5329 C49.016635,35.68113 49.008535,35.81532 49.007725,35.92224 C49.0068999,36.02916 49.005025,36.122715 49.01245,36.215595 C49.032565,36.467775 49.076575,36.664605 49.15258,36.792045 C49.22035,36.933525 49.296355,37.060965 49.382755,37.20096 C49.589845,37.438155 49.7563,37.638495 49.908175,37.773225 C50.05168,37.921995 50.223265,38.06847 50.41456,38.226825 L50.405245,38.2275 C50.64541,38.408535 50.87707,38.483595 51.119935,38.46402 C51.21349,38.456595 51.29638,38.436615 51.37009,38.41731 C51.452035,38.3841 51.523585,38.3382 51.58582,38.293245 L51.576505,38.29392 C52.35127,37.87137 53.013715,37.337445 53.553445,36.679995 C54.10249,36.0216 54.534085,35.305965 54.86794,34.5447 C55.20193,33.783435 55.252015,33.35211 55.37608,32.55426 C55.508515,31.74237 55.39687,31.40406 55.339495,30.68748 C55.28104,29.95767 55.32721,28.538415 55.094605,27.982755 L55.095685,27.995985 C54.90898,27.5436 54.700675,27.17289 54.46969,26.870895 C54.23857,26.5689 53.98477,26.335485 53.725975,26.155935 C53.45881,25.99029 53.18665,25.878645 52.898965,25.808175 C52.612225,25.750935 52.328725,25.733655 52.048465,25.756065 C51.562735,25.794945 51.112375,25.924545 50.68699,26.132175 C50.252425,26.340615 49.895755,26.58294 49.59727,26.847135 L49.51762,27.027225 Z M51.952345,28.781955 C52.077895,28.70514 52.215865,28.66734 52.36531,28.65546 C52.542835,28.64115 52.6966,28.682325 52.83592,28.77804 C52.96687,28.88766 53.06164,29.013615 53.13049,29.168325 L53.11996,29.155905 C53.14615,29.2473 53.172205,29.338695 53.198395,29.43009 C53.216215,29.53539 53.235115,29.65419 53.24686,29.800125 C53.27548,30.158415 52.765585,30.599865 52.70821,31.05846 C52.65097,31.51719 52.53865,31.993605 52.370305,32.474475 C52.20196,32.955345 51.97759,33.440805 51.6868,33.918165 C51.396955,34.408755 51.663445,34.801335 51.2251,35.197155 C51.359965,34.064505 50.853445,33.02325 50.99371,31.95702 C51.135055,30.90402 51.781975,29.823885 51.952345,28.781955 Z" id="Fill-15" fill="#FFFFFF"></path>
                    <path d="M35.92609,39.98817 C35.825245,39.902715 35.705635,39.81888 35.58508,39.72168 C35.456155,39.63852 35.32831,39.56859 35.19115,39.49947 C35.064385,39.442905 34.93762,39.386205 34.811935,39.34287 C34.696645,39.31209 34.59175,39.29373 34.51696,39.29967 C34.386145,39.3102 34.295965,39.35745 34.2286,39.456405 C34.16245,39.568455 34.10035,39.733695 34.062415,39.96387 C33.999775,40.356045 33.942535,40.814775 33.88327,41.36706 C33.814825,41.92002 33.75772,42.4989 33.69454,43.11828 C33.632305,43.75089 34.205515,44.33274 34.14544,44.991945 C34.07605,45.651825 34.024345,46.29699 33.9694,46.90233 C33.914455,47.507805 33.239725,48.12273 33.20638,48.64626 C33.17317,49.169655 33.15211,49.61205 33.14239,49.96008 C33.130105,50.041215 33.126055,50.10831 33.13024,50.161365 C33.126325,50.22846 33.13159,50.29488 33.139015,50.38776 C33.154945,50.58675 33.20611,50.75631 33.283195,50.89698 C33.36973,51.036975 33.4726,51.14889 33.601525,51.23205 C33.722215,51.32925 33.860455,51.411735 34.015165,51.466005 C34.160695,51.52122 34.316485,51.588855 34.47133,51.64326 C34.529515,51.665265 34.577305,51.674715 34.625095,51.6843 C34.663435,51.69456 34.70083,51.69159 34.738225,51.68862 C34.859725,51.6789 34.949905,51.631515 34.99027,51.54822 C35.03887,51.450885 35.074915,51.3144 35.105695,51.11163 C35.145385,50.66775 35.19844,50.155965 35.256625,49.59045 C35.315755,49.038165 35.381095,48.44538 35.445355,47.83923 C35.519065,47.232405 36.22795,46.57455 36.2995,45.94113 C36.370915,45.307845 36.444625,44.700885 36.51928,44.10729 C36.595015,43.52706 36.028285,43.02486 36.09889,42.49836 C36.170575,41.98509 36.238345,41.53905 36.300985,41.14674 C36.324475,40.97124 36.331495,40.823685 36.32083,40.69098 C36.30922,40.545045 36.270475,40.414635 36.204865,40.29975 C36.14965,40.197285 36.046645,40.08537 35.915695,39.975615 L35.92609,39.98817 Z" id="Fill-16" fill="#FFFFFF"></path>
                    <path d="M42.74386,40.47039 C42.73441,40.35105 42.70498,40.21983 42.674605,40.07538 C42.634915,39.931605 42.58591,39.78864 42.53677,39.645675 C42.47845,39.503385 42.421075,39.37446 42.354385,39.24621 C42.29701,39.117285 42.2314,39.0024 42.16687,38.900745 C42.08263,38.78721 41.980705,38.688525 41.881885,38.629665 C41.773885,38.571615 41.62228,38.557035 41.42599,38.572695 C41.090785,38.612925 40.729525,38.68191 40.32169,38.754675 C39.913855,38.82744 39.49765,38.91411 39.07321,39.014955 C38.64877,39.115665 38.233645,39.2157 37.8196,39.328965 C37.41487,39.441555 37.047535,39.55104 36.72799,39.670245 C36.600415,39.720465 36.51118,39.78108 36.451105,39.85263 C36.39211,39.93741 36.373615,40.05918 36.38752,40.23171 C36.397105,40.35105 36.414925,40.456485 36.451375,40.560435 L36.45043,40.54707 L36.48796,40.66425 C36.538045,40.82058 36.59866,40.98933 36.670615,41.183865 C36.75202,41.377725 36.83221,41.55822 36.92077,41.724675 C37.018645,41.890455 37.114495,42.029775 37.226815,42.14088 C37.339135,42.25212 37.4659,42.308685 37.596715,42.29829 C37.708765,42.289245 37.83742,42.252255 37.96513,42.202035 C38.092705,42.15168 38.237965,42.08661 38.421565,42.031935 C38.337595,42.626205 38.902435,43.22196 38.825755,43.909245 C38.740975,44.610435 38.673745,45.29691 38.60638,45.983385 C38.54023,46.683225 37.853215,47.379285 37.80043,48.01122 C37.75696,48.642345 37.724695,49.179105 37.70377,49.6215 L37.70269,49.60827 C37.679065,49.78377 37.681495,49.93038 37.69,50.036625 C37.71646,50.36832 37.8115,50.614425 37.983085,50.761035 C38.155615,50.92074 38.37283,51.050205 38.63473,51.14943 L38.625415,51.15024 C38.761495,51.20613 38.897575,51.26202 39.032575,51.304545 C39.16771,51.347205 39.272605,51.36543 39.366025,51.358005 C39.478075,51.349095 39.56839,51.30171 39.6367,51.21612 C39.70501,51.13053 39.74011,50.980815 39.761575,50.77872 L39.753205,50.79276 C39.827725,50.079015 39.90724,49.311405 39.994045,48.516525 C40.090165,47.72097 40.820515,46.861155 40.92379,46.038195 C41.02828,45.2286 41.132635,44.41887 41.23699,43.609275 C41.34256,42.81291 40.805395,42.09471 40.906915,41.36544 C41.15599,41.305365 41.396695,41.259465 41.62822,41.214105 C41.85961,41.16888 42.080605,41.1111 42.301735,41.05332 C42.487495,41.025105 42.604675,40.96233 42.67204,40.86351 C42.731035,40.778595 42.757765,40.64292 42.74386,40.47039 Z" id="Fill-17" fill="#FFFFFF"></path>
                    <path d="M52.21816,63.431865 C51.385075,61.157925 49.31593,62.208765 45.99736,64.294785 C43.21447,66.043845 39.26815,67.2012 40.04602,68.8651425 C40.593175,70.0344585 44.87713,69.1348185 47.82364,68.101326 C51.14788,66.93525 52.745875,64.87272 52.21816,63.431865 Z" id="Fill-18" fill="#FFFFFF"></path>
                    <path d="M37.174165,68.8109535 C37.135285,67.792257 36.45259,67.61754 34.662625,67.41666 C33.19693,67.252365 31.296265,68.052672 31.525225,69.0398055 C31.754185,70.026939 32.55163,70.469145 34.47241,70.5846105 C35.942695,70.6729275 37.212505,69.8080365 37.174165,68.8109535 Z" id="Fill-19" fill="#FFFFFF"></path>
                    <path d="M23.536735,23.14395 C25.45522,20.25846 31.283575,15.588135 40.05385,17.082315 C42.15769,17.44074 41.67007,20.522655 40.243255,20.2617 C34.298395,19.174275 29.052565,19.94958 23.536735,23.14395 Z" id="Fill-20" fill="#FFFFFF"></path>
                    <path d="M56.30785,44.03142 C56.62105,46.20789 51.939115,54.24309 43.703035,56.68821 C41.51455,57.337965 41.27722,54.570195 43.36108,53.764785 C48.33583,51.84144 52.064395,50.45985 56.30785,44.03142 Z" id="Fill-21" fill="#000000"></path>
                </g>
            </g>
        </g>
    </g>
</svg>