<?xml version="1.0" encoding="UTF-8" standalone="no"?>
<!DOCTYPE svg PUBLIC "-//W3C//DTD SVG 1.1//EN" "http://www.w3.org/Graphics/SVG/1.1/DTD/svg11.dtd">
<svg width="100%" height="100%" viewBox="0 0 600 600" version="1.1" xmlns="http://www.w3.org/2000/svg" xmlns:xlink="http://www.w3.org/1999/xlink" xml:space="preserve" xmlns:serif="http://www.serif.com/" style="fill-rule:evenodd;clip-rule:evenodd;stroke-linecap:round;stroke-linejoin:round;stroke-miterlimit:1.5;">
    <g transform="matrix(1,0,0,1,-3340,0)">
        <g id="Artboard6" transform="matrix(1,0,0,1,-54,0)">
            <rect x="3394" y="0" width="600" height="600" style="fill:none;"/>
            <path d="M3685.64,446.423C3618.93,436.167 3515.59,397.568 3515.59,278.709C3515.59,178.883 3596.64,97.836 3696.46,97.836C3796.29,97.836 3877.34,178.883 3877.34,278.709C3877.34,334.672 3851.87,384.733 3811.89,417.928C3819.87,421.903 3825.78,431.556 3823.11,445.828C3840.68,453.348 3851.65,474.646 3840.55,492.939C3788.72,578.317 3586.04,565.947 3547,492.939C3537.95,476.004 3546.87,453.348 3564.44,445.828C3561.4,441.128 3552.34,438.619 3562.47,421.822C3602.41,449.4 3650.68,456.197 3685.64,446.423Z" style="fill:rgb(255,126,121);"/>
            <path d="M3630.03,440.754C3569.67,419.321 3507.59,373.081 3507.59,278.709C3507.59,174.467 3592.22,89.836 3696.46,89.836C3800.7,89.836 3885.34,174.467 3885.34,278.709C3885.34,333.645 3861.83,383.136 3824.34,417.661C3829.17,423.243 3832.28,431.167 3831.72,441.276C3850.12,452.378 3859.97,476.365 3847.39,497.09C3820.21,541.866 3753.84,561.953 3688.78,560.331C3650.29,559.372 3612.41,550.952 3583.89,536.285C3563.89,526.003 3548.44,512.591 3539.95,496.711C3530.44,478.925 3536.85,455.978 3552.34,443.806C3551.22,441.976 3550.37,439.871 3550,437.351C3549.35,433.005 3550.12,426.816 3555.61,417.693C3556.75,415.802 3558.62,414.466 3560.78,414.001C3562.94,413.536 3565.19,413.984 3567.01,415.238C3586.84,428.929 3608.83,437.263 3630.03,440.754ZM3565.84,433.554C3565.76,434.071 3565.76,434.549 3565.83,434.999C3566.04,436.411 3567.28,437.002 3568.05,437.787C3569.25,438.997 3570.33,440.205 3571.16,441.485C3572.44,443.466 3572.78,445.909 3572.09,448.164C3571.4,450.419 3569.75,452.255 3567.59,453.183C3554.14,458.938 3547.13,476.207 3554.06,489.166C3561.18,502.49 3574.43,513.429 3591.2,522.056C3617.83,535.75 3653.24,543.44 3689.18,544.336C3748.18,545.807 3809.06,529.391 3833.71,488.787C3842.15,474.889 3833.32,458.896 3819.96,453.183C3816.52,451.709 3814.56,448.041 3815.25,444.358C3817.06,434.641 3813.76,427.796 3808.32,425.09C3805.9,423.884 3804.25,421.537 3803.94,418.85C3803.63,416.163 3804.7,413.501 3806.78,411.773C3844.99,380.045 3869.34,332.199 3869.34,278.709C3869.34,183.298 3791.88,105.836 3696.46,105.836C3601.05,105.836 3523.59,183.298 3523.59,278.709C3523.59,392.402 3623.05,428.706 3686.85,438.516C3690.58,439.088 3693.39,442.182 3693.62,445.943C3693.85,449.704 3691.42,453.113 3687.79,454.127C3653.23,463.791 3606.29,458.27 3565.84,433.554Z"/>
            <g transform="matrix(1.65601,0,0,1.65601,3130.44,-214.658)">
                <path d="M276,145C282.367,144.895 279.902,154.419 283,157.584C287.551,162.234 294.401,159.194 294,166.084C293.655,172.005 286.497,168.078 284,173C280.491,179.916 281.397,184.586 276,184C270.603,183.414 272.215,175.779 269,172C265.784,168.22 257.479,170.011 257,166.084C256.16,159.192 265.716,160.522 269,157.584C272.284,154.646 269.524,145.107 276,145Z"/>
            </g>
            <g transform="matrix(2.49118,0,0,2.49118,2743.98,-331.614)">
                <circle cx="315.697" cy="172.042" r="5.958"/>
            </g>
            <g transform="matrix(3.15211,0,0,3.15211,2938.75,-252.075)">
                <circle cx="315.697" cy="172.042" r="5.958"/>
            </g>
            <g transform="matrix(2.10892,0,0,2.10892,3338.45,36.2752)">
                <path d="M276,145C282.367,144.895 279.902,154.419 283,157.584C287.551,162.234 294.401,159.194 294,166.084C293.655,172.005 286.497,168.078 284,173C280.491,179.916 281.397,184.586 276,184C270.603,183.414 272.215,175.779 269,172C265.784,168.22 257.479,170.011 257,166.084C256.16,159.192 265.716,160.522 269,157.584C272.284,154.646 269.524,145.107 276,145Z" style="fill:rgb(255,126,121);stroke:black;stroke-width:4.74px;"/>
            </g>
            <g transform="matrix(2.42427,0,0,2.42427,2802.81,-225.783)">
                <path d="M276,145C282.367,144.895 279.902,154.419 283,157.584C287.551,162.234 294.401,159.194 294,166.084C293.655,172.005 286.497,168.078 284,173C280.491,179.916 281.397,184.586 276,184C270.603,183.414 272.215,175.779 269,172C265.784,168.22 257.479,170.011 257,166.084C256.16,159.192 265.716,160.522 269,157.584C272.284,154.646 269.524,145.107 276,145Z" style="fill:rgb(255,126,121);stroke:black;stroke-width:4.95px;"/>
            </g>
            <g transform="matrix(1.08132,-0.0866057,0.12301,1.53584,3466.25,-331.902)">
                <g transform="matrix(64,4.44089e-16,-8.88178e-16,64,45.6797,404.769)">
                    <path d="M0.478,-0.76C0.476,-0.787 0.471,-0.808 0.463,-0.823C0.455,-0.837 0.439,-0.849 0.416,-0.858L0.417,-0.858C0.406,-0.864 0.393,-0.87 0.379,-0.876C0.365,-0.882 0.351,-0.888 0.336,-0.893C0.322,-0.898 0.308,-0.902 0.294,-0.905C0.281,-0.908 0.27,-0.91 0.26,-0.91C0.23,-0.91 0.209,-0.893 0.196,-0.86C0.185,-0.828 0.173,-0.79 0.16,-0.747C0.148,-0.704 0.135,-0.658 0.121,-0.61C0.108,-0.562 0.043,-0.514 0.03,-0.465C0.017,-0.416 0.006,-0.369 -0.006,-0.326C-0.016,-0.282 0.042,-0.242 0.034,-0.207C0.026,-0.172 0.021,-0.144 0.017,-0.125L0.018,-0.126C0.016,-0.113 0.014,-0.101 0.014,-0.09C0.014,-0.075 0.017,-0.063 0.023,-0.054C0.028,-0.045 0.038,-0.036 0.05,-0.028L0.049,-0.029C0.062,-0.019 0.076,-0.011 0.091,-0.006C0.107,-0.001 0.122,0.004 0.137,0.009L0.148,0.012C0.155,0.013 0.161,0.014 0.166,0.016C0.171,0.017 0.175,0.017 0.179,0.017C0.192,0.017 0.201,0.014 0.207,0.007C0.213,0 0.219,-0.01 0.223,-0.023C0.229,-0.046 0.235,-0.072 0.243,-0.101C0.25,-0.13 0.259,-0.161 0.268,-0.194C0.277,-0.227 0.218,-0.261 0.228,-0.297C0.238,-0.332 0.248,-0.368 0.258,-0.404C0.265,-0.36 0.34,-0.317 0.347,-0.275C0.354,-0.233 0.362,-0.195 0.371,-0.161C0.381,-0.126 0.392,-0.097 0.406,-0.072C0.419,-0.047 0.437,-0.03 0.457,-0.02C0.477,-0.013 0.497,-0.005 0.518,0.002C0.539,0.009 0.56,0.013 0.581,0.013C0.614,0.013 0.634,-0.003 0.64,-0.035L0.639,-0.034C0.648,-0.069 0.658,-0.108 0.669,-0.149C0.68,-0.19 0.691,-0.232 0.703,-0.276C0.714,-0.32 0.658,-0.364 0.671,-0.409C0.683,-0.454 0.695,-0.497 0.708,-0.54C0.72,-0.583 0.784,-0.623 0.795,-0.662C0.807,-0.701 0.817,-0.736 0.827,-0.767C0.83,-0.774 0.832,-0.78 0.833,-0.786C0.834,-0.792 0.834,-0.798 0.834,-0.803C0.834,-0.818 0.829,-0.832 0.818,-0.843C0.808,-0.854 0.795,-0.864 0.78,-0.873C0.766,-0.881 0.751,-0.888 0.735,-0.893C0.72,-0.898 0.707,-0.902 0.697,-0.905C0.691,-0.906 0.686,-0.908 0.681,-0.909C0.677,-0.91 0.673,-0.91 0.669,-0.91C0.64,-0.91 0.62,-0.894 0.609,-0.861C0.592,-0.808 0.574,-0.751 0.556,-0.688C0.538,-0.625 0.467,-0.56 0.45,-0.493C0.447,-0.52 0.445,-0.546 0.442,-0.573C0.439,-0.599 0.489,-0.624 0.487,-0.647C0.485,-0.67 0.484,-0.692 0.482,-0.711C0.48,-0.73 0.479,-0.747 0.478,-0.76Z" style="fill-rule:nonzero;"/>
                </g>
                <g transform="matrix(64,4.44089e-16,-8.88178e-16,64,94.9027,402.48)">
                    <path d="M0.508,-0.076C0.51,-0.049 0.514,-0.031 0.522,-0.02C0.529,-0.009 0.544,0 0.564,0.007L0.563,0.006C0.581,0.013 0.597,0.018 0.613,0.019C0.629,0.02 0.647,0.021 0.665,0.021C0.69,0.021 0.706,0.017 0.714,0.009C0.722,0.001 0.726,-0.014 0.726,-0.035C0.728,-0.099 0.731,-0.167 0.733,-0.238C0.736,-0.309 0.671,-0.378 0.675,-0.446C0.678,-0.514 0.735,-0.578 0.739,-0.639C0.743,-0.7 0.748,-0.752 0.753,-0.796L0.754,-0.805L0.754,-0.816C0.754,-0.833 0.757,-0.903 0.75,-0.914C0.742,-0.925 0.728,-0.934 0.708,-0.941L0.69,-0.946C0.666,-0.954 0.639,-0.962 0.608,-0.97C0.577,-0.977 0.539,-0.981 0.493,-0.981C0.465,-0.981 0.444,-0.975 0.428,-0.964C0.413,-0.952 0.393,-0.882 0.381,-0.865C0.351,-0.818 0.319,-0.764 0.283,-0.701C0.247,-0.638 0.159,-0.574 0.124,-0.507C0.088,-0.44 0.054,-0.375 0.022,-0.311C-0.011,-0.246 0.03,-0.189 0.007,-0.138C0.003,-0.127 -0.001,-0.117 -0.002,-0.108C-0.004,-0.099 -0.005,-0.091 -0.005,-0.084C-0.005,-0.073 -0.002,-0.064 0.003,-0.056C0.009,-0.047 0.015,-0.04 0.024,-0.033C0.032,-0.025 0.042,-0.019 0.052,-0.013C0.063,-0.007 0.074,-0.001 0.084,0.004L0.096,0.01C0.109,0.015 0.121,0.018 0.131,0.018C0.143,0.018 0.154,0.012 0.164,0C0.174,-0.012 0.184,-0.027 0.194,-0.046C0.204,-0.064 0.214,-0.084 0.224,-0.106C0.233,-0.127 0.244,-0.147 0.254,-0.166C0.288,-0.175 0.326,-0.183 0.37,-0.19C0.413,-0.197 0.458,-0.203 0.503,-0.21L0.505,-0.19C0.505,-0.147 0.506,-0.109 0.508,-0.076ZM0.504,-0.644C0.502,-0.608 0.447,-0.571 0.445,-0.534C0.443,-0.497 0.441,-0.459 0.439,-0.421C0.418,-0.42 0.398,-0.418 0.378,-0.416C0.358,-0.414 0.338,-0.411 0.317,-0.408C0.34,-0.451 0.364,-0.492 0.387,-0.532C0.409,-0.571 0.484,-0.609 0.504,-0.644Z" style="fill-rule:nonzero;"/>
                </g>
                <g transform="matrix(64,4.44089e-16,-8.88178e-16,64,147.701,402.778)">
                    <path d="M0.395,-0.952C0.385,-0.959 0.374,-0.966 0.361,-0.973C0.349,-0.98 0.335,-0.986 0.322,-0.992C0.308,-0.998 0.295,-1.002 0.283,-1.006C0.27,-1.01 0.26,-1.012 0.251,-1.012C0.238,-1.012 0.227,-1.008 0.219,-1.001C0.211,-0.994 0.204,-0.982 0.197,-0.965C0.188,-0.936 0.166,-0.798 0.154,-0.757C0.143,-0.716 0.131,-0.673 0.119,-0.627C0.107,-0.58 0.043,-0.533 0.031,-0.484C0.018,-0.435 0.007,-0.387 -0.004,-0.342C-0.015,-0.297 0.044,-0.255 0.036,-0.216C0.028,-0.177 0.022,-0.144 0.018,-0.118C0.017,-0.112 0.016,-0.107 0.015,-0.103C0.015,-0.098 0.014,-0.093 0.014,-0.086C0.014,-0.071 0.018,-0.058 0.026,-0.047C0.033,-0.036 0.044,-0.027 0.056,-0.02C0.069,-0.012 0.083,-0.005 0.098,0C0.114,0.005 0.129,0.011 0.145,0.016C0.151,0.018 0.157,0.019 0.161,0.02C0.166,0.021 0.17,0.021 0.173,0.021C0.187,0.021 0.196,0.018 0.202,0.012C0.207,0.005 0.213,-0.005 0.217,-0.02C0.226,-0.053 0.236,-0.091 0.247,-0.133C0.258,-0.174 0.269,-0.218 0.282,-0.263C0.294,-0.308 0.239,-0.353 0.252,-0.4C0.265,-0.447 0.278,-0.492 0.291,-0.536C0.304,-0.579 0.368,-0.62 0.38,-0.659C0.392,-0.697 0.403,-0.73 0.413,-0.759C0.417,-0.772 0.419,-0.783 0.419,-0.793C0.419,-0.804 0.417,-0.814 0.411,-0.823C0.405,-0.831 0.408,-0.943 0.394,-0.953L0.395,-0.952Z" style="fill-rule:nonzero;"/>
                </g>
                <g transform="matrix(64,4.44089e-16,-8.88178e-16,64,171.707,402.035)">
                    <path d="M0.473,-0.048C0.493,-0.053 0.506,-0.059 0.513,-0.064C0.521,-0.069 0.524,-0.078 0.524,-0.09C0.524,-0.105 0.521,-0.123 0.516,-0.145C0.51,-0.166 0.502,-0.186 0.491,-0.203L0.492,-0.202C0.484,-0.218 0.475,-0.229 0.465,-0.236C0.454,-0.243 0.441,-0.246 0.424,-0.246C0.395,-0.246 0.368,-0.244 0.344,-0.24C0.319,-0.236 0.295,-0.232 0.269,-0.228C0.283,-0.275 0.23,-0.324 0.245,-0.374C0.26,-0.423 0.276,-0.472 0.291,-0.52C0.306,-0.568 0.374,-0.614 0.389,-0.658C0.405,-0.701 0.419,-0.741 0.432,-0.777L0.431,-0.776C0.435,-0.783 0.437,-0.79 0.438,-0.795C0.44,-0.8 0.447,-0.86 0.447,-0.865C0.447,-0.877 0.44,-0.89 0.427,-0.903C0.414,-0.916 0.398,-0.928 0.38,-0.939C0.361,-0.95 0.341,-0.96 0.32,-0.967C0.299,-0.974 0.281,-0.978 0.265,-0.978C0.241,-0.978 0.222,-0.963 0.209,-0.933C0.197,-0.902 0.179,-0.812 0.166,-0.773C0.153,-0.733 0.14,-0.692 0.127,-0.65C0.114,-0.606 0.049,-0.563 0.036,-0.518C0.023,-0.472 0.012,-0.429 0.001,-0.387C-0.011,-0.345 0.048,-0.305 0.039,-0.268C0.031,-0.231 0.024,-0.198 0.018,-0.169L0.019,-0.171C0.017,-0.164 0.016,-0.159 0.015,-0.154C0.015,-0.149 0.014,-0.144 0.014,-0.139C0.014,-0.124 0.017,-0.11 0.022,-0.099C0.028,-0.088 0.035,-0.077 0.044,-0.068L0.064,-0.048L0.063,-0.048C0.071,-0.039 0.079,-0.032 0.085,-0.026C0.092,-0.019 0.099,-0.013 0.106,-0.006L0.106,-0.007C0.114,0 0.122,0.005 0.13,0.01C0.139,0.015 0.151,0.017 0.166,0.017C0.174,0.017 0.181,0.017 0.19,0.016C0.198,0.014 0.207,0.012 0.217,0.009L0.216,0.009C0.256,-0.001 0.298,-0.01 0.343,-0.019C0.387,-0.028 0.43,-0.037 0.472,-0.047L0.473,-0.048Z" style="fill-rule:nonzero;"/>
                </g>
                <g transform="matrix(64,8.88178e-16,-1.77636e-15,64,206.7,406.413)">
                    <path d="M0.199,-0.896L0.034,-0.175C0.032,-0.165 0.031,-0.155 0.031,-0.145C0.031,-0.128 0.034,-0.113 0.039,-0.101C0.045,-0.089 0.052,-0.078 0.061,-0.068L0.061,-0.069C0.073,-0.056 0.083,-0.044 0.093,-0.034C0.102,-0.023 0.112,-0.014 0.121,-0.007C0.131,0.001 0.141,0.007 0.152,0.011C0.163,0.015 0.176,0.017 0.19,0.017C0.203,0.017 0.219,0.015 0.237,0.01L0.236,0.011C0.278,0.002 0.322,-0.008 0.367,-0.018C0.412,-0.027 0.456,-0.037 0.498,-0.046C0.518,-0.05 0.531,-0.055 0.538,-0.061C0.546,-0.067 0.549,-0.078 0.549,-0.093C0.549,-0.11 0.546,-0.129 0.54,-0.148C0.533,-0.167 0.526,-0.185 0.518,-0.201L0.518,-0.2C0.512,-0.216 0.504,-0.228 0.493,-0.235C0.482,-0.242 0.467,-0.245 0.449,-0.245C0.419,-0.245 0.391,-0.243 0.364,-0.239C0.337,-0.235 0.311,-0.231 0.285,-0.226C0.287,-0.238 0.29,-0.252 0.295,-0.268C0.301,-0.283 0.238,-0.298 0.243,-0.311C0.266,-0.316 0.29,-0.321 0.314,-0.326C0.338,-0.33 0.363,-0.335 0.388,-0.34L0.387,-0.34C0.404,-0.343 0.421,-0.345 0.438,-0.348C0.454,-0.35 0.468,-0.353 0.481,-0.357C0.493,-0.361 0.503,-0.367 0.511,-0.374C0.518,-0.381 0.522,-0.39 0.522,-0.401C0.522,-0.407 0.521,-0.415 0.518,-0.425L0.519,-0.424C0.516,-0.438 0.512,-0.452 0.509,-0.466C0.506,-0.479 0.5,-0.494 0.492,-0.509L0.492,-0.508C0.485,-0.525 0.475,-0.536 0.464,-0.542C0.453,-0.548 0.437,-0.551 0.418,-0.551L0.411,-0.551C0.382,-0.55 0.353,-0.548 0.324,-0.545C0.333,-0.57 0.395,-0.596 0.403,-0.622C0.412,-0.647 0.42,-0.671 0.428,-0.693C0.47,-0.699 0.509,-0.704 0.545,-0.709C0.582,-0.713 0.618,-0.717 0.652,-0.72C0.674,-0.723 0.689,-0.728 0.697,-0.735C0.705,-0.742 0.709,-0.755 0.709,-0.773C0.709,-0.782 0.708,-0.791 0.705,-0.8L0.706,-0.799C0.704,-0.81 0.702,-0.821 0.699,-0.831C0.697,-0.841 0.692,-0.854 0.685,-0.869L0.685,-0.868C0.679,-0.885 0.671,-0.898 0.659,-0.907C0.647,-0.916 0.637,-0.975 0.616,-0.975L0.611,-0.975C0.575,-0.974 0.54,-0.971 0.504,-0.966C0.468,-0.961 0.433,-0.956 0.398,-0.95C0.364,-0.944 0.331,-0.938 0.299,-0.931C0.268,-0.924 0.238,-0.917 0.212,-0.91L0.199,-0.896Z" style="fill-rule:nonzero;"/>
                </g>
                <g transform="matrix(64,8.88178e-16,-1.77636e-15,64,244.142,413.275)">
                    <path d="M0.175,-0.836L0.05,-0.201L0.051,-0.202C0.048,-0.191 0.046,-0.181 0.045,-0.173C0.044,-0.165 0.043,-0.158 0.043,-0.151C0.043,-0.132 0.046,-0.117 0.053,-0.107C0.059,-0.096 0.066,-0.086 0.074,-0.075C0.094,-0.056 0.11,-0.04 0.125,-0.029C0.139,-0.017 0.156,-0.005 0.175,0.008L0.174,0.008C0.198,0.023 0.222,0.03 0.248,0.03C0.258,0.03 0.267,0.029 0.275,0.028C0.284,0.026 0.292,0.023 0.299,0.02L0.298,0.02C0.384,-0.007 0.459,-0.043 0.522,-0.089C0.586,-0.135 0.638,-0.186 0.68,-0.241C0.722,-0.296 0.731,-0.328 0.751,-0.387C0.772,-0.447 0.763,-0.473 0.763,-0.527C0.763,-0.582 0.78,-0.688 0.76,-0.731L0.76,-0.73C0.744,-0.765 0.725,-0.794 0.703,-0.818C0.681,-0.842 0.656,-0.861 0.63,-0.876C0.603,-0.89 0.575,-0.9 0.545,-0.907C0.515,-0.913 0.485,-0.916 0.455,-0.916C0.403,-0.916 0.354,-0.909 0.307,-0.896C0.259,-0.883 0.219,-0.867 0.185,-0.849L0.175,-0.836ZM0.419,-0.69C0.433,-0.695 0.448,-0.697 0.464,-0.697C0.483,-0.697 0.499,-0.693 0.513,-0.685C0.526,-0.676 0.535,-0.666 0.541,-0.654L0.54,-0.655C0.542,-0.648 0.544,-0.641 0.546,-0.634C0.547,-0.626 0.548,-0.617 0.548,-0.606C0.548,-0.579 0.49,-0.549 0.48,-0.515C0.47,-0.481 0.454,-0.446 0.432,-0.411C0.41,-0.376 0.382,-0.341 0.347,-0.307C0.312,-0.272 0.337,-0.241 0.287,-0.214C0.311,-0.298 0.266,-0.379 0.29,-0.458C0.314,-0.536 0.392,-0.613 0.419,-0.69Z" style="fill-rule:nonzero;"/>
                </g>
                <g transform="matrix(64,0,0,64,138.931,470.939)">
                    <path d="M0.263,-0.848C0.253,-0.855 0.241,-0.862 0.229,-0.87C0.216,-0.877 0.203,-0.883 0.189,-0.889C0.176,-0.894 0.163,-0.899 0.15,-0.903C0.138,-0.906 0.127,-0.908 0.119,-0.908C0.105,-0.908 0.095,-0.905 0.087,-0.898C0.079,-0.89 0.071,-0.878 0.065,-0.861C0.055,-0.832 0.045,-0.798 0.034,-0.757C0.022,-0.716 0.011,-0.673 -0.001,-0.627C-0.013,-0.58 0.043,-0.533 0.031,-0.484C0.018,-0.435 0.007,-0.387 -0.004,-0.342C-0.015,-0.297 -0.092,-0.255 -0.1,-0.216C-0.108,-0.177 -0.114,-0.144 -0.118,-0.118C-0.12,-0.112 -0.121,-0.107 -0.121,-0.103C-0.122,-0.098 -0.122,-0.093 -0.122,-0.086C-0.122,-0.071 -0.118,-0.058 -0.111,-0.047C-0.103,-0.036 -0.093,-0.027 -0.08,-0.02C-0.068,-0.012 -0.054,-0.005 -0.038,0C-0.023,0.005 -0.007,0.011 0.009,0.016C0.015,0.018 0.02,0.019 0.025,0.02C0.029,0.021 0.033,0.021 0.037,0.021C0.05,0.021 0.06,0.018 0.065,0.012C0.071,0.005 0.076,-0.005 0.081,-0.02C0.089,-0.053 0.099,-0.091 0.11,-0.133C0.121,-0.174 0.133,-0.218 0.145,-0.263C0.158,-0.308 0.239,-0.353 0.252,-0.4C0.265,-0.447 0.278,-0.492 0.291,-0.536C0.304,-0.579 0.248,-0.62 0.26,-0.659C0.272,-0.697 0.283,-0.73 0.293,-0.759C0.297,-0.772 0.299,-0.783 0.299,-0.793C0.299,-0.804 0.296,-0.814 0.29,-0.823C0.285,-0.831 0.275,-0.84 0.262,-0.849L0.263,-0.848Z" style="fill-rule:nonzero;"/>
                </g>
                <g transform="matrix(64,0,0,64,158.387,470.939)">
                    <path d="M0.68,-0.771C0.68,-0.78 0.678,-0.79 0.676,-0.801C0.673,-0.812 0.669,-0.823 0.665,-0.834C0.66,-0.845 0.655,-0.855 0.649,-0.865C0.644,-0.875 0.638,-0.884 0.632,-0.892C0.624,-0.901 0.614,-0.909 0.604,-0.914C0.593,-0.919 0.577,-0.921 0.556,-0.921C0.52,-0.92 0.481,-0.917 0.437,-0.914C0.393,-0.911 0.348,-0.907 0.302,-0.902C0.256,-0.897 0.211,-0.892 0.166,-0.886C0.122,-0.88 0.082,-0.874 0.047,-0.867C0.033,-0.864 0.023,-0.86 0.016,-0.855C0.009,-0.849 0.006,-0.84 0.006,-0.827C0.006,-0.818 0.007,-0.81 0.01,-0.802L0.01,-0.803L0.013,-0.794C0.017,-0.782 0.022,-0.769 0.028,-0.754C0.035,-0.739 0.042,-0.725 0.05,-0.712C0.059,-0.699 0.068,-0.688 0.079,-0.679C0.09,-0.67 0.103,-0.665 0.117,-0.665C0.129,-0.665 0.143,-0.667 0.157,-0.67C0.171,-0.673 0.187,-0.677 0.207,-0.68C0.193,-0.636 0.248,-0.588 0.234,-0.537C0.219,-0.485 0.206,-0.434 0.193,-0.383C0.18,-0.331 0.101,-0.283 0.09,-0.236C0.08,-0.189 0.072,-0.149 0.066,-0.116L0.066,-0.117C0.062,-0.104 0.061,-0.093 0.061,-0.085C0.061,-0.06 0.069,-0.041 0.086,-0.029C0.103,-0.016 0.125,-0.005 0.152,0.004L0.151,0.004C0.165,0.009 0.179,0.014 0.193,0.018C0.207,0.022 0.218,0.024 0.228,0.024C0.24,0.024 0.25,0.021 0.258,0.015C0.266,0.009 0.271,-0.002 0.275,-0.017L0.274,-0.016C0.288,-0.069 0.303,-0.126 0.319,-0.185C0.336,-0.244 0.421,-0.304 0.439,-0.365C0.457,-0.425 0.475,-0.485 0.493,-0.545C0.511,-0.604 0.46,-0.661 0.477,-0.715C0.504,-0.718 0.53,-0.72 0.555,-0.722C0.58,-0.724 0.604,-0.727 0.628,-0.73C0.648,-0.731 0.661,-0.735 0.669,-0.742C0.676,-0.748 0.68,-0.758 0.68,-0.771Z" style="fill-rule:nonzero;"/>
                </g>
            </g>
            <g transform="matrix(3.03517,0.183382,-0.183382,3.03517,2462.93,-737.051)">
                <path d="M465,369C462.64,363.593 457.763,366.452 450,372.012C443.49,376.674 434.064,380.068 436.2,384C437.702,386.763 447.987,383.946 455,381C462.912,377.676 466.495,372.426 465,369Z" style="fill:white;"/>
            </g>
            <g transform="matrix(3.31516,0.687523,-0.687523,3.31516,2544.99,-1065.18)">
                <path d="M427,386C426.464,383.835 424.924,383.764 421,384.129C417.787,384.428 414.071,386.987 415,389C415.929,391.013 417.834,391.606 422,391C425.189,390.536 427.525,388.119 427,386Z" style="fill:white;"/>
            </g>
            <g transform="matrix(2.47487,-0.456154,0.662624,3.59508,2564.43,-329.831)">
                <path d="M365,187C363.662,183.254 396.622,169.014 428,183C434.75,186.009 429.989,192.539 425,191C407.703,185.666 391.18,181.165 365,187Z" style="fill:white;"/>
            </g>
        </g>
    </g>
</svg>
